<svg width="83" height="56" viewBox="0 0 83 56" fill="none" xmlns="http://www.w3.org/2000/svg">
<path d="M2.73165 42.6835V12.4253H8.11089V25.0329C8.81131 23.8842 9.74987 22.9877 10.9266 22.3433C12.1313 21.6709 13.5041 21.3347 15.0451 21.3347C17.6226 21.3347 19.6118 22.1472 21.0127 23.7721C22.4415 25.3971 23.156 27.7786 23.156 30.9164V42.6835H17.8187V31.4207C17.8187 29.6277 17.4545 28.2548 16.7261 27.3023C16.0257 26.3497 14.905 25.8734 13.3641 25.8734C11.8511 25.8734 10.5904 26.4057 9.58177 27.4704C8.60118 28.535 8.11089 30.0199 8.11089 31.9251V42.6835H2.73165ZM37.3773 43.1878C35.276 43.1878 33.4129 42.7396 31.7879 41.843C30.1629 40.9465 28.8881 39.6857 27.9636 38.0607C27.039 36.4358 26.5767 34.5586 26.5767 32.4294C26.5767 30.2721 27.025 28.3529 27.9216 26.6719C28.8461 24.9909 30.1069 23.6881 31.7038 22.7635C33.3288 21.811 35.234 21.3347 37.4193 21.3347C39.4645 21.3347 41.2716 21.7829 42.8405 22.6795C44.4095 23.576 45.6282 24.8088 46.4967 26.3777C47.3933 27.9186 47.8416 29.6417 47.8416 31.5468C47.8416 31.855 47.8275 32.1772 47.7995 32.5134C47.7995 32.8496 47.7855 33.1998 47.7575 33.564H31.914C32.026 35.189 32.5864 36.4638 33.595 37.3883C34.6316 38.3129 35.8784 38.7752 37.3352 38.7752C38.4279 38.7752 39.3384 38.537 40.0669 38.0607C40.8233 37.5564 41.3837 36.9121 41.7479 36.1276H47.2112C46.8189 37.4444 46.1605 38.6491 45.236 39.7418C44.3394 40.8064 43.2188 41.6469 41.874 42.2633C40.5572 42.8797 39.0583 43.1878 37.3773 43.1878ZM37.4193 25.7053C36.1025 25.7053 34.9398 26.0835 33.9312 26.84C32.9226 27.5684 32.2782 28.6891 31.998 30.202H42.3783C42.2942 28.8292 41.7899 27.7365 40.8654 26.924C39.9408 26.1115 38.7921 25.7053 37.4193 25.7053ZM58.5015 43.1878C56.7085 43.1878 55.2376 42.9077 54.0889 42.3473C52.9402 41.759 52.0857 40.9885 51.5253 40.0359C50.965 39.0834 50.6848 38.0327 50.6848 36.884C50.6848 34.9509 51.4413 33.3819 52.9542 32.1772C54.4671 30.9725 56.7365 30.3701 59.7623 30.3701H65.0575V29.8658C65.0575 28.4369 64.6512 27.3863 63.8388 26.7139C63.0263 26.0415 62.0177 25.7053 60.8129 25.7053C59.7203 25.7053 58.7677 25.9715 57.9552 26.5038C57.1427 27.0081 56.6384 27.7645 56.4423 28.7732H51.1891C51.3292 27.2602 51.8335 25.9434 52.702 24.8228C53.5986 23.7021 54.7473 22.8476 56.1481 22.2592C57.549 21.6429 59.1179 21.3347 60.855 21.3347C63.8247 21.3347 66.1642 22.0771 67.8732 23.562C69.5822 25.0469 70.4367 27.1482 70.4367 29.8658V42.6835H65.856L65.3517 39.3215C64.7353 40.4422 63.8668 41.3667 62.7461 42.0952C61.6534 42.8236 60.2386 43.1878 58.5015 43.1878ZM59.7203 38.9853C61.2612 38.9853 62.4519 38.481 63.2924 37.4724C64.161 36.4638 64.7073 35.217 64.9314 33.7321H60.3507C58.9218 33.7321 57.8992 33.9983 57.2828 34.5306C56.6664 35.0349 56.3582 35.6653 56.3582 36.4218C56.3582 37.2342 56.6664 37.8646 57.2828 38.3129C57.8992 38.7612 58.7117 38.9853 59.7203 38.9853ZM74.5194 42.6835V12.4253H79.8987V42.6835H74.5194Z" fill="black"/>
<rect x="51.481" y="13.2911" width="17.8608" height="5.25316" fill="#FFD012"/>
</svg>
